<svg xmlns="http://www.w3.org/2000/svg" viewBox="0 0 374.15 276.31"><defs><style>.cls-1{isolation:isolate;}.cls-2,.cls-6{fill:#dee3f9;}.cls-3{fill:#c5c9e6;}.cls-4{fill:#d3daf4;}.cls-5{fill:#fff;}.cls-10,.cls-14,.cls-6{mix-blend-mode:multiply;}.cls-7{fill:#878cf0;}.cls-8{fill:#56548c;}.cls-9{fill:#606bf1;}.cls-10{fill:#e6e7e8;}.cls-11{fill:#8089f4;}.cls-12{fill:#4850b5;}.cls-13{fill:#fbd15b;}.cls-14,.cls-15{fill:#efb729;}.cls-16{fill:#112b46;}.cls-17{fill:#ec827d;}.cls-18{fill:#e05858;}.cls-19{fill:#bee1f4;}.cls-20{fill:#f9e3ac;}.cls-21{fill:#f9fbfc;}.cls-22{fill:#a2d4ea;}.cls-23{fill:#d8edf8;}.cls-24{fill:#7876a3;}.cls-25{fill:#726c9c;}.cls-26{fill:#5061e2;}.cls-27{fill:#8996f7;}.cls-28{fill:#dd5b5b;}.cls-29{fill:#f7a4a4;}</style></defs><title>Dusbin with BG Gras</title><g class="cls-1"><g id="OBJECTS"><path class="cls-2" d="M558.23,369.56c12.21,0,23.61-7.8,32.26-16,.88-.84,1.79-1.72,2.65-2.6a53.43,53.43,0,0,1-17.21.33,80.6,80.6,0,0,0,22.9-6.49c10.44-12.24,18.84-26,26.72-40a63,63,0,0,1-11.64.71,58.23,58.23,0,0,0,16-8.36c9.35-16.67,18.16-33.3,24.22-51,.19-.56.36-1.16.53-1.77-6.15,5.33-13.21,8.37-19.24,13.56,3.71-6.94,7.06-14.1,11.63-20.26,3.56-4.8,7.8-8.9,11.43-13.68,0-.61.06-1.26.09-1.9.43-9.76-1.95-22-6.53-30.86-.33.94-.6,1.92-.87,2.88a80.35,80.35,0,0,1-2.68,8.73,34.43,34.43,0,0,1-4.37,7.53,56.2,56.2,0,0,0,2.45-9.57c.53-3.44.64-7,1.06-10.45.22-1.83.52-3.64.87-5.43a60.18,60.18,0,0,0-11.57-13.49c-4.74,3.58-11.57,8.2-16.6,12.92.07.73.11,1.49.14,2.22.16,3.48-.08,7,.16,10.48a29.57,29.57,0,0,0,.61,4.42,29.64,29.64,0,0,1-4.35-7.73q-.76-2-1.35-4a241.18,241.18,0,0,0-16.38,24,18.74,18.74,0,0,1,1.13,2.5c1.72,4.52,2.23,9.54,2.47,14.55.16,3.4.22,6.88.51,10.28a46.65,46.65,0,0,0-3-5.16c-2.33-3.48-5.28-6.59-7.64-10a112,112,0,0,0-7.44,20c-1.67,6.34-2.72,12.83-4.27,19.31.1.28.21.55.31.83a70.47,70.47,0,0,0,7.26,14.66,35.53,35.53,0,0,1-5.38-3.52,25.23,25.23,0,0,1-4.31-4.33c-.1.3-.18.61-.3.9-4.63,12.1-11.42,22.71-18.9,34-.13,1-.24,2-.37,3a115.36,115.36,0,0,0-1.33,12.85,31.45,31.45,0,0,0,.45,6.15,21.85,21.85,0,0,1-5.58-6.75,16.24,16.24,0,0,1-1.14-3.27c-5.34,8.5-10.16,17.37-12.85,27-1.2,4.27.39,14.32,2.53,17.69C546.6,366.85,552,369.57,558.23,369.56Z" transform="translate(-284.45 -126.02)"/><path class="cls-3" d="M559.08,356.71a25.48,25.48,0,0,1-3.54-1.67,200.57,200.57,0,0,0,17.84-17.37,61.31,61.31,0,0,0,8.71-1.37,73.21,73.21,0,0,0,9.84-3.06,81.91,81.91,0,0,0,19-10.44,79.33,79.33,0,0,1-19.06,9.34,70.78,70.78,0,0,1-9.67,2.47,55.7,55.7,0,0,1-6.71.79,237.8,237.8,0,0,0,30.47-42.33,58.45,58.45,0,0,0,8-2.94,67.74,67.74,0,0,0,8.37-4.55,76.51,76.51,0,0,0,15.38-12.93,74.42,74.42,0,0,1-15.62,12.13,66.27,66.27,0,0,1-8.34,4.1,55,55,0,0,1-6.72,2.21,237.81,237.81,0,0,0,20-47.71,74.35,74.35,0,0,0,13.09-11.94c4-4.65,10.77-15.68,10.77-15.68s-7,10.75-11.07,15.22a73.31,73.31,0,0,1-12.3,10.74A321.68,321.68,0,0,0,636,195.54a216.42,216.42,0,0,1-5.51,32.36,116.25,116.25,0,0,1-9.23-10.83c-3-4-6-8-8.77-12.15,2.67,4.24,5.48,8.43,8.38,12.55a122.29,122.29,0,0,0,9.29,11.77,318.66,318.66,0,0,1-16.66,46c-1.72-2.5-3.42-5-5-7.64-1.78-2.93-3.55-5.94-5.22-9-3.34-6-6.55-12.2-9.45-18.41,2.68,6.33,5.66,12.64,8.78,18.89,1.56,3.13,3.22,6.26,4.9,9.31s3.35,5.78,5.12,8.62a319.3,319.3,0,0,1-24.46,39.26c-.86-2.25-1.67-4.54-2.37-6.87-.86-2.93-1.7-5.93-2.41-8.94-1.41-6-2.64-12.11-3.51-18.21.54,6.18,1.42,12.4,2.49,18.59.54,3.1,1.2,6.21,1.89,9.27.64,2.78,1.44,5.53,2.29,8.26a319.58,319.58,0,0,1-33,34.19,33.34,33.34,0,0,1-1.19-4.31,61.73,61.73,0,0,1-1-6.58,94.83,94.83,0,0,1-.3-13.61,101.92,101.92,0,0,0-.79,13.85,63.77,63.77,0,0,0,.44,6.91,41,41,0,0,0,1,5.31,236.14,236.14,0,0,1-36.5,24.91l2,3.45a239.62,239.62,0,0,0,36.58-25.88,27.64,27.64,0,0,0,4.48,1.67,34.51,34.51,0,0,0,6.36,1.13,42.42,42.42,0,0,0,13.65-1.1,39.74,39.74,0,0,1-13.2,0A33.93,33.93,0,0,1,559.08,356.71Z" transform="translate(-284.45 -126.02)"/><path class="cls-4" d="M577.52,147.06c5.74-2.6,14.54,2.13,17.16,7.17,3.05,5.85.36,11.74,0,12.44,1.19.5,8.82,3.81,11.53,12.17a20.51,20.51,0,0,1-6,21.23c.46.22,7.5,3.59,8.47,11,.83,6.25-3,12.64-9.46,15.28a12.81,12.81,0,0,1,1.16,24.51c.33.51,5.81,9.36,1.42,18.52-3.44,7.2-11.49,11.48-19.94,10.46a10.44,10.44,0,0,1-3.67,12.46,10.27,10.27,0,0,1-10.47.22,7.53,7.53,0,0,1-13.93,4.33,8.73,8.73,0,0,1-5.45,5.26c-3.3.95-9.29-.4-11.44-3.44Z" transform="translate(-284.45 -126.02)"/><path class="cls-2" d="M536.91,298.68c-4.55,2.82-11.95.75-14.16-1.64a7,7,0,0,1-1.29-7.05,9.34,9.34,0,0,1-9.55-2.56,9.45,9.45,0,0,1-.38-11.74,10.36,10.36,0,0,1-11-5.06c-2.38-4.54-.64-10.71,4.36-13.65a17.21,17.21,0,0,1,.61-31.23,16.4,16.4,0,0,1-.62-17.45c4-6.65,11.42-7.56,12.28-7.65a15.67,15.67,0,0,1,2.58-16.24c4.83-5.46,11.79-5.13,12.65-5.08a16.54,16.54,0,0,1,19.94-25.7,14,14,0,0,1,9.51-10.51c5.51-1.61,13,1.29,15.67,3.94Z" transform="translate(-284.45 -126.02)"/><path class="cls-5" d="M569.57,175.51a89.18,89.18,0,0,1-11.15-7.8A121.61,121.61,0,0,1,548,158.23a122.38,122.38,0,0,0,10.16,9.82,92.29,92.29,0,0,0,11.19,8.33l-8.83,31.09c-2.28-1.43-4.53-2.91-6.7-4.52-2.48-1.81-4.92-3.7-7.27-5.69A158.23,158.23,0,0,1,533,184.61,162.43,162.43,0,0,0,546,197.92c2.28,2.11,4.64,4.12,7,6.07s4.61,3.54,7,5.2l-7.3,25.71a116.25,116.25,0,0,1-18.24-11,178.61,178.61,0,0,1-17.57-14.59A178.11,178.11,0,0,0,534,224.58a116.37,116.37,0,0,0,18.29,12l-7.44,26.2c-2.8-1.49-5.59-3-8.27-4.76q-4.86-3-9.47-6.49a159.34,159.34,0,0,1-17.47-14.95,160.8,160.8,0,0,0,16.94,15.64c3,2.42,6.1,4.72,9.28,6.89,2.75,1.92,5.62,3.65,8.52,5.33l-17.26,60.85,2.52.68,45.73-170.73Z" transform="translate(-284.45 -126.02)"/><path class="cls-5" d="M567.31,271.09c-4,.92-8,1.77-12,2.3-2,.34-4.06.5-6.08.74-1.3.13-2.6.22-3.9.3l6.82-27c1.66-.2,3.31-.39,5-.62,2-.35,4.09-.59,6.11-1,4.06-.74,8.08-1.73,12.06-2.81s7.88-2.44,11.71-4a77.73,77.73,0,0,0,11.11-5.35,77.36,77.36,0,0,1-11.27,5c-3.86,1.38-7.8,2.53-11.78,3.53s-8,1.77-12,2.36c-2,.35-4.06.52-6.08.79-1.45.16-2.9.28-4.34.4l6.22-24.7c3.07-.74,6.12-1.54,9.12-2.51,3.23-1,6.4-2.18,9.53-3.44s6.19-2.69,9.2-4.22a86.93,86.93,0,0,0,8.72-5.08,83.17,83.17,0,0,1-8.92,4.68c-3,1.4-6.15,2.68-9.31,3.81s-6.35,2.15-9.59,3c-2.74.76-5.51,1.36-8.29,1.92l7.71-30.56A101.18,101.18,0,0,0,582,182.85a96.52,96.52,0,0,0,14.22-8.21,95,95,0,0,1-14.41,7.81,100.23,100.23,0,0,1-14.65,5.15l8.16-32.38L529.6,326l2.53.67,12.72-50.47c1.5-.15,3-.3,4.5-.5,2-.32,4.09-.55,6.12-1,4.07-.68,8.08-1.68,12.06-2.75a120,120,0,0,0,11.69-4,78.23,78.23,0,0,0,11.09-5.38,77.6,77.6,0,0,1-11.24,5A118.57,118.57,0,0,1,567.31,271.09Z" transform="translate(-284.45 -126.02)"/><path class="cls-2" d="M451.46,126a6.78,6.78,0,0,1,5.9,2.77c.66,1,.84,2.32,1.46,3.39,2,3.54,7.52,3.31,10.22,6.37,1.95,2.2,2,5.56,3.65,8s4.63,3.5,6.06,6c2.22,3.82-.12,9.32,2.67,12.74a14.6,14.6,0,0,0,3.7,2.73,18.24,18.24,0,0,1,7.78,18.52,8.82,8.82,0,0,0-.37,3.59c.39,1.9,2.17,3.11,3.52,4.5a12.66,12.66,0,0,1,.25,16.82,7.7,7.7,0,0,0-2.18,3c-.4,1.49.4,3,1,4.41,1.55,3.41,1.74,8.3-1.57,10.06-1.07.57-2.46.79-3,1.86a3.51,3.51,0,0,0-.29,1.82c.07,3,0,6.84-2.73,8.14-2.3,1.09-5.4-.33-7.43,1.22-2.69,2.06-1.21,7.7-4.47,8.65-2.11.61-4.88-1.48-6.31.19a5.92,5.92,0,0,0-.79,2.05c-1.09,3.2-5.41,3.92-8.67,3a2.36,2.36,0,0,0-1.67-.07c-.64.32-.8,1.14-1,1.83-.59,1.82-2.35,3.53-5.71,3.53Z" transform="translate(-284.45 -126.02)"/><path class="cls-2" d="M451.46,261.05c-2,.08-5.73-2.32-6.71-4.09a5.5,5.5,0,0,0-.95-1.52c-1-.85-2.43-.49-3.69-.26a7.11,7.11,0,0,1-3.75-.21,3.81,3.81,0,0,1-2.43-2.71,7,7,0,0,0-.2-1.2c-.49-1.4-2.39-1.53-3.88-1.53-2.67,0-5.86-.86-6.63-3.41-.37-1.25-.07-2.7-.76-3.81-.88-1.41-2.84-1.52-4.47-1.88-2.81-.61-5.52-2.78-5.72-5.64-.13-1.84.75-3.57,1.43-5.28a1.15,1.15,0,0,0-.72-1.81,13.61,13.61,0,0,1-4.39-2.76,4.69,4.69,0,0,1-1.24-4.78c.37-.95,1.16-1.69,1.61-2.61,1.07-2.14.2-4.72-.92-6.83-1.37-2.6-3.11-5-4.18-7.76s-1.4-6,0-8.52c1-1.75,2.67-3,4.08-4.39s2.65-3.3,2.36-5.28c-.33-2.28-1.45-3.75-1.57-6.06a9.93,9.93,0,0,1,1.76-6.53c2.43-3.16,7.21-4.12,9-7.69,1.15-2.3.69-5,.59-7.59s.4-5.54,2.62-6.82a25.8,25.8,0,0,1,3.47-1.19,6.09,6.09,0,0,0,3.67-6.07,6.12,6.12,0,0,1-.1-2.21c.43-1.63,2.49-2.06,4.15-2.38,1.91-.36,3.95-1.09,4.92-2.78s.62-3.5,1.11-5.21c.65-2.27,1.46-4.22,11.51-4.22Z" transform="translate(-284.45 -126.02)"/><path class="cls-3" d="M477.38,224.68A103.47,103.47,0,0,1,469,230.9c-2.87,2-5.84,3.76-8.83,5.53L455.65,239l-2.28,1.2L452.79,210a75.68,75.68,0,0,0,8.48-5.11,104.2,104.2,0,0,0,8.56-6.8c2.71-2.41,5.33-4.94,7.83-7.57s4.91-5.35,7.16-8.19c-2.36,2.75-4.88,5.36-7.47,7.88s-5.3,4.92-8.1,7.21a101.76,101.76,0,0,1-8.72,6.37,72.16,72.16,0,0,1-7.78,4.32l-.65-34a52.74,52.74,0,0,0,4.86-4.59,55.32,55.32,0,0,0,4.35-5.21,60.56,60.56,0,0,0,6.83-11.61,60.05,60.05,0,0,1-7.52,11.06,56.67,56.67,0,0,1-4.59,4.83,45.49,45.49,0,0,1-4,3.35l-.59-31-.39,20.14c-2.85-1.83-5.6-3.88-8.28-6q-4.38-3.47-8.58-7.17,4,3.94,8.15,7.68a102.14,102.14,0,0,0,8.68,7l-.62,32c-2.42-1-4.82-2.1-7.16-3.32-2.8-1.42-5.54-3-8.21-4.62s-5.3-3.41-7.85-5.26-5-3.8-7.39-5.89c2.26,2.2,4.66,4.26,7.13,6.24s5,3.87,7.63,5.65,5.3,3.48,8.06,5c2.51,1.47,5.12,2.77,7.76,4l-.63,32.72c-2.69-1.24-5.35-2.53-7.93-4-3.27-1.77-6.46-3.7-9.56-5.76s-6.16-4.21-9.11-6.5-5.83-4.67-8.56-7.23c2.63,2.67,5.42,5.17,8.29,7.57s5.82,4.71,8.88,6.89,6.17,4.26,9.4,6.18c2.77,1.7,5.65,3.22,8.55,4.68l-.91,47.4h5.29l-.7-36.42,3-1.75,4.47-2.76c2.93-1.91,5.85-3.85,8.65-5.94a103.43,103.43,0,0,0,8.14-6.61,51.11,51.11,0,0,0,7.15-7.63A50.85,50.85,0,0,1,477.38,224.68Z" transform="translate(-284.45 -126.02)"/><path class="cls-4" d="M375.13,179.93c-3.29-1.49-8.33,1.22-9.84,4.11a8.35,8.35,0,0,0,0,7.13,11.9,11.9,0,0,0-6.61,7,11.75,11.75,0,0,0,3.45,12.17c-.27.13-4.3,2.06-4.86,6.31a8.49,8.49,0,0,0,5.43,8.75,7.34,7.34,0,0,0-.67,14c-.19.3-3.33,5.37-.82,10.62a11.12,11.12,0,0,0,11.43,6,6,6,0,0,0,2.11,7.14,5.86,5.86,0,0,0,6,.12,4.31,4.31,0,0,0,8,2.49,5,5,0,0,0,3.12,3c1.89.54,5.33-.23,6.56-2Z" transform="translate(-284.45 -126.02)"/><path class="cls-2" d="M398.4,266.82c2.6,1.61,6.85.43,8.11-.94a4,4,0,0,0,.74-4,5.34,5.34,0,0,0,5.47-1.47,5.41,5.41,0,0,0,.22-6.73,5.92,5.92,0,0,0,6.3-2.9,6,6,0,0,0-2.5-7.82,9.86,9.86,0,0,0-.35-17.89,9.42,9.42,0,0,0,.36-10,9.69,9.69,0,0,0-7-4.39,9,9,0,0,0-1.48-9.3,9.25,9.25,0,0,0-7.25-2.91,9.48,9.48,0,0,0-11.42-14.73,8,8,0,0,0-5.46-6c-3.15-.93-7.42.73-9,2.25Z" transform="translate(-284.45 -126.02)"/><path class="cls-5" d="M379.68,196.24a51.2,51.2,0,0,0,6.39-4.47,71.56,71.56,0,0,0,6-5.43,72,72,0,0,1-5.83,5.62,50.75,50.75,0,0,1-6.41,4.77l5.06,17.82c1.3-.82,2.59-1.67,3.84-2.59,1.42-1,2.82-2.12,4.17-3.26a89.62,89.62,0,0,0,7.73-7.25,90.41,90.41,0,0,1-7.41,7.63c-1.3,1.21-2.65,2.36-4,3.48s-2.65,2-4,3l4.18,14.73A65.59,65.59,0,0,0,399.79,224a101.68,101.68,0,0,0,10.07-8.36,101.44,101.44,0,0,1-9.77,8.76,66.62,66.62,0,0,1-10.48,6.87l4.26,15c1.61-.86,3.2-1.74,4.74-2.73,1.85-1.17,3.67-2.41,5.43-3.72a91.65,91.65,0,0,0,10-8.57,92.71,92.71,0,0,1-9.71,9c-1.72,1.38-3.49,2.7-5.32,3.94-1.57,1.1-3.22,2.1-4.88,3.06L404,282.06l-1.45.38-26.2-97.83Z" transform="translate(-284.45 -126.02)"/><path class="cls-5" d="M381,251c2.28.53,4.58,1,6.9,1.32,1.16.19,2.33.28,3.49.42.74.07,1.49.12,2.23.18l-3.91-15.5c-.95-.11-1.9-.22-2.84-.35-1.17-.2-2.35-.34-3.51-.59-2.33-.42-4.62-1-6.91-1.61s-4.51-1.4-6.71-2.27a44.32,44.32,0,0,1-6.36-3.07,43.55,43.55,0,0,0,6.45,2.84c2.22.79,4.48,1.45,6.75,2s4.59,1,6.91,1.35c1.15.21,2.33.3,3.49.46.82.09,1.65.16,2.48.22l-3.56-14.15c-1.76-.42-3.51-.88-5.23-1.44s-3.67-1.25-5.46-2-3.55-1.54-5.27-2.42a47.88,47.88,0,0,1-5-2.91,48.75,48.75,0,0,0,5.11,2.69q2.63,1.2,5.34,2.18c1.81.63,3.64,1.23,5.49,1.72,1.57.43,3.16.78,4.75,1.1l-4.41-17.51a57.32,57.32,0,0,1-8.64-3.28,55,55,0,0,1-8.16-4.7,57.85,57.85,0,0,0,16.66,7.42l-4.68-18.55,26.2,97.83-1.44.39-7.29-28.92c-.86-.09-1.72-.18-2.58-.29-1.17-.18-2.35-.32-3.51-.55-2.33-.39-4.63-1-6.91-1.58a66,66,0,0,1-6.7-2.28,43.75,43.75,0,0,1-6.35-3.08,44,44,0,0,0,6.44,2.85A66.11,66.11,0,0,0,381,251Z" transform="translate(-284.45 -126.02)"/><path class="cls-4" d="M423.09,231.33c4.61-2.08,11.66,1.71,13.77,5.75,2.44,4.69.29,9.41,0,10,.95.39,7.07,3.05,9.24,9.75a16.45,16.45,0,0,1-4.83,17c.38.17,6,2.87,6.8,8.82a11.88,11.88,0,0,1-7.59,12.25,10.27,10.27,0,0,1,.93,19.65c.27.41,4.66,7.51,1.14,14.85a15.54,15.54,0,0,1-16,8.38,8.38,8.38,0,0,1-2.95,10,8.21,8.21,0,0,1-8.39.18,6,6,0,0,1-11.17,3.47,7,7,0,0,1-4.37,4.22c-2.64.76-7.45-.33-9.17-2.76Z" transform="translate(-284.45 -126.02)"/><path class="cls-2" d="M390.54,352.89c-3.65,2.26-9.58.6-11.35-1.32a5.66,5.66,0,0,1-1-5.65,7.45,7.45,0,0,1-7.65-2.05,7.57,7.57,0,0,1-.31-9.41,8.31,8.31,0,0,1-8.81-4.06,8.43,8.43,0,0,1,3.5-10.94,13.8,13.8,0,0,1,.48-25,13.16,13.16,0,0,1-.49-14c3.2-5.33,9.15-6.06,9.84-6.13a12.59,12.59,0,0,1,2.07-13,12.91,12.91,0,0,1,10.14-4.07,13.27,13.27,0,0,1,16-20.61,11.17,11.17,0,0,1,7.63-8.42c4.41-1.3,10.38,1,12.55,3.15Z" transform="translate(-284.45 -126.02)"/><path class="cls-5" d="M416.72,254.14a71.19,71.19,0,0,1-8.93-6.25,97.2,97.2,0,0,1-8.38-7.6,99.26,99.26,0,0,0,8.15,7.87,73.52,73.52,0,0,0,9,6.68l-7.08,24.93c-1.82-1.15-3.63-2.34-5.37-3.63-2-1.45-3.94-3-5.83-4.56a128,128,0,0,1-10.83-10.14,130.53,130.53,0,0,0,10.37,10.67c1.82,1.69,3.72,3.3,5.65,4.87s3.7,2.84,5.62,4.17l-5.84,20.6a91.31,91.31,0,0,1-14.63-8.83,144.24,144.24,0,0,1-14.09-11.7,143.2,143.2,0,0,0,13.67,12.26,92.35,92.35,0,0,0,14.67,9.6l-6,21c-2.25-1.19-4.49-2.43-6.64-3.82-2.59-1.62-5.13-3.36-7.59-5.2a127.72,127.72,0,0,1-14-12,127.05,127.05,0,0,0,13.58,12.54q3.6,2.91,7.44,5.52c2.2,1.54,4.5,2.93,6.83,4.27l-13.84,48.79,2,.54,36.66-136.88Z" transform="translate(-284.45 -126.02)"/><path class="cls-5" d="M414.91,330.77c-3.2.74-6.41,1.42-9.66,1.85-1.61.27-3.25.39-4.88.59-1,.1-2.08.17-3.12.24l5.47-21.67c1.32-.16,2.66-.31,4-.5,1.63-.28,3.28-.48,4.9-.82,3.26-.59,6.48-1.38,9.67-2.25s6.32-2,9.38-3.18a62,62,0,0,0,8.92-4.29,62.55,62.55,0,0,1-9,4c-3.1,1.11-6.26,2-9.44,2.84s-6.42,1.42-9.67,1.89c-1.61.28-3.25.42-4.87.63-1.16.13-2.32.22-3.48.32l5-19.8c2.46-.6,4.9-1.23,7.31-2,2.59-.8,5.13-1.75,7.64-2.76s5-2.16,7.37-3.39a66.06,66.06,0,0,0,7-4.07,67.65,67.65,0,0,1-7.15,3.76c-2.45,1.12-4.94,2.15-7.47,3.05s-5.09,1.73-7.69,2.4c-2.19.61-4.41,1.1-6.64,1.54l6.17-24.49A80.85,80.85,0,0,0,426.69,260a75.09,75.09,0,0,0,11.41-6.58,77.21,77.21,0,0,1-11.55,6.27,80.23,80.23,0,0,1-11.75,4.12l6.54-26L384.68,374.75l2,.54,10.2-40.46c1.2-.13,2.4-.25,3.6-.41,1.64-.25,3.29-.44,4.91-.77,3.26-.55,6.48-1.35,9.67-2.2a96.58,96.58,0,0,0,9.37-3.19,62.83,62.83,0,0,0,8.89-4.31,62.3,62.3,0,0,1-9,4A94.61,94.61,0,0,1,414.91,330.77Z" transform="translate(-284.45 -126.02)"/><path class="cls-2" d="M501.18,386.29H331.63a8.42,8.42,0,0,1-8.4-8.4h0a8.43,8.43,0,0,1,8.4-8.41H501.18a8.43,8.43,0,0,1,8.41,8.41h0A8.43,8.43,0,0,1,501.18,386.29Z" transform="translate(-284.45 -126.02)"/><path class="cls-2" d="M377.74,357.55c2.49-5.07,5.3-9.93,6.31-15.5,1.71-9.5-2-19.29-6.11-27.93-.39-.83-.81-1.67-1.22-2.48A81.68,81.68,0,0,1,371.13,326a148.62,148.62,0,0,0,2.71-19.87C368,295.68,362,285,357.72,273.85c-2.21,2.85-4.6,5.59-7.08,8.23a79.9,79.9,0,0,0,4.9-14.48,387.78,387.78,0,0,1-7.33-41.36c-.06-.44-.11-.87-.19-1.33-3.58,5.64-8.51,10.59-11.07,17-.28-6.45-.35-12.91,1.61-18.85,1.53-4.63,4.23-8.77,6.4-13-.13-.43-.26-.88-.41-1.34a74.47,74.47,0,0,0-11.75-22c-.24.77-.42,1.56-.59,2.36-.51,2.39-.81,4.88-1.48,7.24a33.88,33.88,0,0,1-2.86,6.8,62,62,0,0,0,.66-8.16c0-2.86-.29-5.74-.16-8.61a32.9,32.9,0,0,1,.51-4.46,101.71,101.71,0,0,0-11.55-11.47c-4.86,3-11.69,7.25-16.43,12.28.11.74.2,1.5.28,2.23a103.41,103.41,0,0,0,1.32,10.46,24.92,24.92,0,0,0,1.34,4.24,24,24,0,0,1-5.47-7.05,35,35,0,0,1-1.81-4,84.42,84.42,0,0,0-10.84,29.61,27.27,27.27,0,0,1,1.89,2.37c3.16,4.33,5.58,9.34,8,14.24a93.78,93.78,0,0,0,5.39,9.7c-1.68-1.21-3.4-2.37-5.15-3.43-3.73-2.27-7.79-4.08-11.42-6.73a80.78,80.78,0,0,0,4.44,25.44c2.62,7.5,6.36,14.41,10.17,21.2l.84.47a46.07,46.07,0,0,0,16,5.63,31.92,31.92,0,0,1-6.13,1.76,20.33,20.33,0,0,1-6.14.17c.17.33.35.64.53,1,7,12.95,13.71,26.21,21.26,39,.94.61,1.89,1.18,2.82,1.74a62.13,62.13,0,0,0,12.09,6.11,25.41,25.41,0,0,0,6.08,1.29,19.8,19.8,0,0,1-7.9,3.64,13.27,13.27,0,0,1-3.51.1c6.17,7.61,16.1,15.22,25.43,18.33C364.57,361.51,374.46,359.75,377.74,357.55Z" transform="translate(-284.45 -126.02)"/><path class="cls-3" d="M372.23,341.31a30.6,30.6,0,0,1-2.14,3.15c-5.12-7.23-7.54-10.94-12.07-18.52.67-2.63,1.3-5.28,1.77-7.92.53-3,1-6,1.32-9a140.43,140.43,0,0,0,.91-17.92,139.34,139.34,0,0,1-1.9,17.7c-.49,2.94-1.12,5.89-1.81,8.76-.48,2-1.06,4.05-1.68,6a389.67,389.67,0,0,1-20.23-42c1.16-2.38,2.29-4.79,3.26-7.23,1-2.62,2-5.31,2.88-8a123.72,123.72,0,0,0,4.08-16.3,121.76,121.76,0,0,1-4.78,16c-1,2.62-2.06,5.22-3.2,7.74-.9,2-1.92,4-3,5.89a391.15,391.15,0,0,1-12.85-44.57A151.48,151.48,0,0,0,330,220.81c2.13-4.9,5.65-14.92,5.65-14.92s-3.82,9.87-6.09,14.67a145.87,145.87,0,0,1-7,13,289.74,289.74,0,0,1-5.13-41.72,242.81,242.81,0,0,0,2.39,29.33,62.19,62.19,0,0,1-12.16-6.63A84.38,84.38,0,0,1,296,204.93a85.59,85.59,0,0,0,11.35,10.14A62.46,62.46,0,0,0,320,222.44a290,290,0,0,0,9.34,43.23,76.1,76.1,0,0,1-8.67-2.13,85.23,85.23,0,0,1-9.64-3.66,89.62,89.62,0,0,1-18.39-11.07,91.49,91.49,0,0,0,18.16,11.87,86.37,86.37,0,0,0,9.64,4.08,78.88,78.88,0,0,0,9.41,2.64,290.7,290.7,0,0,0,15.1,39.2,56.17,56.17,0,0,1-7-.9,71.88,71.88,0,0,1-8.83-2.32,78.15,78.15,0,0,1-17.2-8.21,79.79,79.79,0,0,0,17,9.28,72.56,72.56,0,0,0,8.9,2.88,60.57,60.57,0,0,0,8.19,1.45,290.93,290.93,0,0,0,21.54,37.4,30.37,30.37,0,0,1-4.31.81,41.74,41.74,0,0,1-6.54.22,53.52,53.52,0,0,1-13.46-2.34,56.28,56.28,0,0,0,13.54,3.45,45.32,45.32,0,0,0,6.78.3,32.73,32.73,0,0,0,5.24-.61,292.64,292.64,0,0,0,24.92,31.26l2.87-2.68a290.07,290.07,0,0,1-25.17-30.37,34.74,34.74,0,0,0,2.24-4,46.5,46.5,0,0,0,2.22-5.64,53.72,53.72,0,0,0,2.34-11.81,51.05,51.05,0,0,1-3.29,11.37A43.73,43.73,0,0,1,372.23,341.31Z" transform="translate(-284.45 -126.02)"/><rect class="cls-2" x="205.12" y="239.47" width="125.01" height="27.06" rx="13.53" ry="13.53"/><rect class="cls-2" x="271.47" y="245.74" width="85.82" height="7.37" rx="3.68" ry="3.68"/><path class="cls-6" d="M607.37,373.58H528.92a3.69,3.69,0,0,0-3.69,3.68,3.51,3.51,0,0,0,.38,1.58H503.24a3.68,3.68,0,0,0,0,7.36h78.45a3.68,3.68,0,0,0,3.68-3.68,3.64,3.64,0,0,0-.37-1.58h22.37a3.68,3.68,0,0,0,0-7.36Z" transform="translate(-284.45 -126.02)"/><path class="cls-6" d="M437.16,378h78.45a3.68,3.68,0,0,0,3.68-3.68h0a3.69,3.69,0,0,0-3.68-3.68H437.16a3.69,3.69,0,0,0-3.68,3.68h0A3.68,3.68,0,0,0,437.16,378Z" transform="translate(-284.45 -126.02)"/><rect class="cls-2" x="118.25" y="268.94" width="85.82" height="7.37" rx="3.68" ry="3.68"/><rect class="cls-2" x="1.95" y="245.74" width="85.82" height="7.37" rx="3.68" ry="3.68"/><path class="cls-6" d="M444.14,376.62H416.51a3.61,3.61,0,0,0,.33-1.5,3.69,3.69,0,0,0-3.68-3.69H334.71a3.69,3.69,0,0,0,0,7.37h27.63a3.61,3.61,0,0,0-.33,1.5,3.7,3.7,0,0,0,3.68,3.69h78.45a3.69,3.69,0,1,0,0-7.37Z" transform="translate(-284.45 -126.02)"/><path class="cls-7" d="M590.44,286.86,584,240.58a2.6,2.6,0,0,0-2.85-2.33l-23.32,3.25a2.61,2.61,0,0,0-2.11,3l6.46,46.28a2.6,2.6,0,0,0,2.86,2.33l23.31-3.25A2.61,2.61,0,0,0,590.44,286.86Z" transform="translate(-284.45 -126.02)"/><path class="cls-7" d="M541.46,308.29,559.07,265a2.62,2.62,0,0,0-1.31-3.45L536,252.68a2.61,2.61,0,0,0-3.34,1.56L515,297.53a2.61,2.61,0,0,0,1.3,3.45l21.81,8.87A2.61,2.61,0,0,0,541.46,308.29Z" transform="translate(-284.45 -126.02)"/><path class="cls-8" d="M567.71,270.47h0a1,1,0,0,0-.13,1.4l.33.4-.15.12a.76.76,0,0,0-.1,1.05l1.51,1.82a.75.75,0,0,0,1.05.1l.15-.12.33.4a1,1,0,0,0,1.4.13h0a1.26,1.26,0,0,0,1.39.05l.21.26.85-.7-.2-.24.85-.7.19.23.85-.7-.19-.23.84-.7.19.23.85-.7-.41-.5.37-.3a10,10,0,0,1,8.92-1.9,13.94,13.94,0,0,0,14.1-22.41,15,15,0,0,0-1.08-1.17,13.93,13.93,0,0,0-23.56,11,9.9,9.9,0,0,1-3.54,8.25l-.37.31-.23-.27-.19-.23-.84.7.19.23-.85.7-.19-.23-.85.7.19.23-.84.7-.19-.23-.85.7.21.26A1.26,1.26,0,0,0,567.71,270.47Z" transform="translate(-284.45 -126.02)"/><path class="cls-8" d="M549.06,243.19l-1.5,1.06-1.28-1.79a1.55,1.55,0,0,0-2.15-.36L538,246.49a1.54,1.54,0,0,0-.35,2.15l1.28,1.79-1.5,1.07a1.54,1.54,0,0,0-.36,2.14l29.19,40.86a1.55,1.55,0,0,0,2.15.36L580,286.55a1.55,1.55,0,0,0,.36-2.15L551.2,243.54A1.53,1.53,0,0,0,549.06,243.19Z" transform="translate(-284.45 -126.02)"/><path class="cls-7" d="M399.6,262.34l-2.83-1.59,2.87-5.14a1.82,1.82,0,0,0-.7-2.47l-3.7-2.06,9.61-19.57a.71.71,0,0,0-.29-.92.69.69,0,0,0-.94.24L392,249.25l-3.69-2.06a1.82,1.82,0,0,0-2.48.7L382.94,253l-2.83-1.58a1.81,1.81,0,0,0-2.47.7L358,287.29a1.83,1.83,0,0,0,.7,2.48l19.49,10.89a1.82,1.82,0,0,0,2.48-.7l19.65-35.15A1.82,1.82,0,0,0,399.6,262.34Z" transform="translate(-284.45 -126.02)"/><path class="cls-7" d="M337.41,283.36l3.15.79-1.45,5.71a1.83,1.83,0,0,0,1.32,2.21l4.11,1-4.2,21.39a.7.7,0,0,0,1.36.34L348.15,294l4.11,1a1.82,1.82,0,0,0,2.21-1.31l1.44-5.71,3.15.8a1.82,1.82,0,0,0,2.2-1.32l9.87-39a1.83,1.83,0,0,0-1.32-2.21l-21.65-5.46A1.82,1.82,0,0,0,346,242.1l-9.86,39A1.82,1.82,0,0,0,337.41,283.36Z" transform="translate(-284.45 -126.02)"/><path class="cls-8" d="M359.57,299.83l3.57-3,1,1.17a.83.83,0,0,0,1.18.11l2.53-2.12a.84.84,0,0,0,.11-1.18l-1-1.17,3.58-3a1.55,1.55,0,0,0,.19-2.17l-15.08-18L338.52,250a1.55,1.55,0,0,0-2.17-.19l-11,9.17a1.54,1.54,0,0,0-.19,2.17l17.13,20.49,15.08,18A1.54,1.54,0,0,0,359.57,299.83Z" transform="translate(-284.45 -126.02)"/><path class="cls-8" d="M505.18,264.91l4.58.88-.29,1.5a.83.83,0,0,0,.66,1l3.24.62a.83.83,0,0,0,1-.66l.29-1.5,4.58.88a1.54,1.54,0,0,0,1.8-1.22l4.43-23.08,5-26.23a1.54,1.54,0,0,0-1.22-1.8l-14-2.7a1.55,1.55,0,0,0-1.81,1.22l-5,26.23L504,263.11A1.54,1.54,0,0,0,505.18,264.91Z" transform="translate(-284.45 -126.02)"/><path class="cls-9" d="M605.55,265.7l-.63,5.57L594,367.32a9.16,9.16,0,0,1-9.11,8.12h-52.3a9.15,9.15,0,0,1-9.11-8.12l-10.93-96.05-.63-5.57Z" transform="translate(-284.45 -126.02)"/><polygon class="cls-10" points="321.09 139.68 320.46 145.24 228.09 145.24 227.46 139.68 321.09 139.68"/><path class="cls-11" d="M607.86,267.65H509.59a2,2,0,0,1,0-3.91h98.27a2,2,0,0,1,0,3.91Z" transform="translate(-284.45 -126.02)"/><path class="cls-12" d="M560.68,281.26l-1.95,79-2-79a2,2,0,1,1,3.91-.09Z" transform="translate(-284.45 -126.02)"/><path class="cls-12" d="M586.61,281.47l-10.45,78.75,6.57-79.17a2,2,0,0,1,3.89.33S586.61,281.44,586.61,281.47Z" transform="translate(-284.45 -126.02)"/><path class="cls-12" d="M534.72,281.05l6.57,79.17-10.45-78.75a2,2,0,0,1,3.87-.51A.28.28,0,0,1,534.72,281.05Z" transform="translate(-284.45 -126.02)"/><path class="cls-7" d="M519.41,215.44,473,221.05a2.61,2.61,0,0,0-2.39,2.81l2.82,23.37a2.62,2.62,0,0,0,3,2.17l46.39-5.61a2.6,2.6,0,0,0,2.39-2.81l-2.82-23.37A2.62,2.62,0,0,0,519.41,215.44Z" transform="translate(-284.45 -126.02)"/><path class="cls-13" d="M416.47,265.7l-.63,5.57-10.93,96.05a9.16,9.16,0,0,1-9.11,8.12H343.5a9.16,9.16,0,0,1-9.11-8.12l-10.93-96.05-.63-5.57Z" transform="translate(-284.45 -126.02)"/><polygon class="cls-14" points="132.02 139.68 131.39 145.24 39.01 145.24 38.38 139.68 132.02 139.68"/><path class="cls-13" d="M418.78,267.65H320.51a2,2,0,0,1,0-3.91h98.27a2,2,0,0,1,0,3.91Z" transform="translate(-284.45 -126.02)"/><path class="cls-15" d="M371.6,281.26l-2,79-1.95-79a2,2,0,1,1,3.9-.09Z" transform="translate(-284.45 -126.02)"/><path class="cls-15" d="M397.53,281.47l-10.44,78.75,6.56-79.17a2,2,0,1,1,3.89.33A.28.28,0,0,1,397.53,281.47Z" transform="translate(-284.45 -126.02)"/><path class="cls-15" d="M345.65,281.05l6.56,79.17-10.44-78.75a2,2,0,1,1,3.87-.51S345.65,281,345.65,281.05Z" transform="translate(-284.45 -126.02)"/><rect class="cls-9" x="461.72" y="200.13" width="26.68" height="41.18" transform="translate(-156.81 -297.35) rotate(23.53)"/><path class="cls-8" d="M471.24,193.73l-18.66,42.84a2.62,2.62,0,0,0,1.22,3.48l21.59,9.4a2.6,2.6,0,0,0,3.38-1.47l18.66-42.85a2.62,2.62,0,0,0-1.22-3.48l-21.59-9.4A2.62,2.62,0,0,0,471.24,193.73Zm7.83,51.2-24.46-10.66,16.44-37.75,24.46,10.65Z" transform="translate(-284.45 -126.02)"/><path class="cls-16" d="M486.9,201.16l-5.58-2.43a.36.36,0,0,1-.19-.49h0a.36.36,0,0,1,.49-.19l5.57,2.42a.39.39,0,0,1,.2.5h0A.37.37,0,0,1,486.9,201.16Z" transform="translate(-284.45 -126.02)"/><path class="cls-16" d="M467.16,243.09a1.69,1.69,0,1,1-.87-2.22A1.69,1.69,0,0,1,467.16,243.09Z" transform="translate(-284.45 -126.02)"/><path class="cls-7" d="M466.15,236.55,435,201.77a2.62,2.62,0,0,0-3.68-.34l-17.52,15.72a2.61,2.61,0,0,0-.06,3.69l31.2,34.78a2.61,2.61,0,0,0,3.68.34l17.52-15.72A2.61,2.61,0,0,0,466.15,236.55Z" transform="translate(-284.45 -126.02)"/><path class="cls-8" d="M454.73,210.71l-4.59.81-.27-1.5a.83.83,0,0,0-1-.68l-3.25.57a.83.83,0,0,0-.67,1l.26,1.51-4.59.81A1.55,1.55,0,0,0,439.4,215l4.11,23.14,4.66,26.3a1.54,1.54,0,0,0,1.78,1.24L464,263.18a1.54,1.54,0,0,0,1.25-1.79l-4.66-26.3L456.51,212A1.53,1.53,0,0,0,454.73,210.71Z" transform="translate(-284.45 -126.02)"/><path class="cls-17" d="M531.53,228.7l-.85,7.44L516.07,364.58a12.26,12.26,0,0,1-12.18,10.86H434a12.24,12.24,0,0,1-12.18-10.86L407.16,236.14l-.84-7.44Z" transform="translate(-284.45 -126.02)"/><polygon class="cls-18" points="247.07 102.68 246.23 110.12 122.71 110.12 121.87 102.68 247.07 102.68"/><path class="cls-17" d="M534.62,231.31H403.22a2.61,2.61,0,0,1,0-5.22h131.4a2.61,2.61,0,1,1,0,5.22Z" transform="translate(-284.45 -126.02)"/><path class="cls-18" d="M471.53,249.51l-2.61,105.58-2.61-105.58a2.61,2.61,0,0,1,5.22-.13Z" transform="translate(-284.45 -126.02)"/><path class="cls-18" d="M506.2,249.79l-14,105.3L501,249.23a2.61,2.61,0,0,1,5.2.43A.59.59,0,0,1,506.2,249.79Z" transform="translate(-284.45 -126.02)"/><path class="cls-18" d="M436.83,249.23l8.78,105.86-14-105.3a2.61,2.61,0,0,1,5.18-.69S436.83,249.19,436.83,249.23Z" transform="translate(-284.45 -126.02)"/><rect class="cls-13" x="255.07" y="200.33" width="17.38" height="53.29" rx="1.54" ry="1.54"/><path class="cls-8" d="M556.9,351.39H539.52V378.1a1.54,1.54,0,0,0,1.54,1.54h14.3a1.54,1.54,0,0,0,1.54-1.54Z" transform="translate(-284.45 -126.02)"/><path class="cls-19" d="M549.86,324h-3.3a.84.84,0,0,0-.84.84v1.52h5v-1.52A.84.84,0,0,0,549.86,324Z" transform="translate(-284.45 -126.02)"/><polygon class="cls-13" points="267.26 237.91 263.76 237.91 263.76 229.99 260.26 241.09 263.76 241.09 263.76 249 267.26 237.91"/><polyline class="cls-8" points="263.43 202.8 263.43 207.77 264.09 207.77 264.09 202.8"/><polyline class="cls-8" points="261.27 205.62 266.25 205.62 266.25 204.96 261.27 204.96"/><polyline class="cls-8" points="261.27 219.21 266.25 219.21 266.25 218.56 261.27 218.56"/><rect class="cls-13" x="207.31" y="240.73" width="53.29" height="17.38" rx="1.54" ry="1.54"/><path class="cls-8" d="M516.8,366.76v17.37h26.71a1.54,1.54,0,0,0,1.54-1.54v-14.3a1.53,1.53,0,0,0-1.54-1.53Z" transform="translate(-284.45 -126.02)"/><path class="cls-19" d="M489.4,373.8v3.29a.84.84,0,0,0,.83.84h1.53v-5h-1.53A.83.83,0,0,0,489.4,373.8Z" transform="translate(-284.45 -126.02)"/><polygon class="cls-13" points="244.88 245.92 244.88 249.42 236.97 249.42 248.06 252.92 248.06 249.42 255.97 249.42 244.88 245.92"/><polyline class="cls-8" points="209.78 249.75 214.75 249.75 214.75 249.09 209.78 249.09"/><polyline class="cls-8" points="212.59 251.91 212.59 246.93 211.94 246.93 211.94 251.91"/><polyline class="cls-8" points="226.19 251.91 226.19 246.93 225.53 246.93 225.53 251.91"/><rect class="cls-13" x="166.15" y="179.13" width="10.68" height="8.24"/><path class="cls-8" d="M166.54,174.61h9.91a1.34,1.34,0,0,1,1.34,1.34v4a0,0,0,0,1,0,0H165.2a0,0,0,0,1,0,0v-4A1.34,1.34,0,0,1,166.54,174.61Z"/><path class="cls-13" d="M472.5,350.72v26.35a4.65,4.65,0,0,1-.11,1.06,5.45,5.45,0,0,1-5.35,4.4H444.83a5.45,5.45,0,0,1-5.45-5.46V350.72a18.07,18.07,0,0,1,1.92-8.09,17.89,17.89,0,0,0,1.3-12.77,13.85,13.85,0,0,1,8-16.46h10.68a13.85,13.85,0,0,1,8,16.39,18,18,0,0,0,1.27,12.84,17.8,17.8,0,0,1,1.9,7.2C472.5,350.13,472.5,350.43,472.5,350.72Z" transform="translate(-284.45 -126.02)"/><path class="cls-20" d="M443,378.13a1.58,1.58,0,0,1-1.57-1.57V350.72a16.12,16.12,0,0,1,1.7-7.17,19.81,19.81,0,0,0,1.45-14.24,11.62,11.62,0,0,1-.43-3.15,11.8,11.8,0,0,1,4.76-9.45,1.57,1.57,0,1,1,1.87,2.52,8.65,8.65,0,0,0-3.18,9.24A23,23,0,0,1,446,345a12.82,12.82,0,0,0-1.37,5.76v25.84A1.57,1.57,0,0,1,443,378.13Z" transform="translate(-284.45 -126.02)"/><path class="cls-21" d="M472.5,350.72v26.35a4.65,4.65,0,0,1-.11,1.06H447.1v-28.3h25.37C472.5,350.13,472.5,350.43,472.5,350.72Z" transform="translate(-284.45 -126.02)"/><rect class="cls-20" x="167.55" y="227.96" width="20.5" height="5.88"/><rect class="cls-20" x="167.55" y="237.79" width="20.5" height="1.68"/><rect class="cls-20" x="167.55" y="245.47" width="20.5" height="1.68"/><rect class="cls-20" x="167.55" y="241.78" width="20.5" height="1.68"/><path class="cls-22" d="M605.34,361.6c-.18-.49-.39-1-.62-1.46a13.95,13.95,0,0,0-25.89,2.45,9.88,9.88,0,0,1-6.1,6.59l-1.16.42,2.78,7.6,1.15-.42a10,10,0,0,1,9,1.2,13.93,13.93,0,0,0,20.8-16.38Z" transform="translate(-284.45 -126.02)"/><path class="cls-8" d="M565.58,372.25h6.89a0,0,0,0,1,0,0v4.17a1,1,0,0,1-1,1h-4.9a1,1,0,0,1-1-1v-4.17a0,0,0,0,1,0,0Z" transform="translate(441.94 -414.15) rotate(69.98)"/><path class="cls-8" d="M566.22,372.57h3.85a0,0,0,0,1,0,0V377a.74.74,0,0,1-.74.74H567a.74.74,0,0,1-.74-.74v-4.42A0,0,0,0,1,566.22,372.57Z" transform="translate(441.67 -413.11) rotate(69.98)"/><path class="cls-23" d="M573.15,373.33a.57.57,0,0,1,.19-.63L589,361.15a.55.55,0,0,1,.86.54l-1.15,6,4.72,3.83a.57.57,0,0,1,.18.59.54.54,0,0,1-.49.37l-19.43,1.24A.56.56,0,0,1,573.15,373.33Zm15.38-10.48-13,9.63,16.19-1-3.89-3.15a.57.57,0,0,1-.2-.53Z" transform="translate(-284.45 -126.02)"/><path class="cls-8" d="M566.17,371H575a0,0,0,0,1,0,0v5.32a1.27,1.27,0,0,1-1.27,1.27h-6.25a1.27,1.27,0,0,1-1.27-1.27V371A0,0,0,0,1,566.17,371Z" transform="translate(442.44 -415.97) rotate(69.98)"/><rect class="cls-24" x="566.39" y="373.53" width="9.39" height="1.1" transform="matrix(0.34, 0.94, -0.94, 0.34, 442.6, -416.58)"/><rect class="cls-24" x="568.45" y="372.78" width="9.39" height="1.1" transform="translate(443.26 -419.02) rotate(69.98)"/><rect class="cls-24" x="564.32" y="374.29" width="9.39" height="1.1" transform="translate(441.95 -414.15) rotate(69.98)"/><polygon class="cls-9" points="125.94 246.31 147.78 246.31 152.05 187 121.67 187 125.94 246.31"/><rect class="cls-8" x="410.39" y="372.33" width="21.84" height="9.18" transform="translate(558.17 627.82) rotate(180)"/><rect class="cls-25" x="418.64" y="377.26" width="5.34" height="4.25" transform="translate(558.17 632.75) rotate(180)"/><polygon class="cls-8" points="121.67 191.32 152.05 191.32 152.7 187 121.08 187 121.67 191.32"/><polygon class="cls-26" points="126.83 203.75 146.88 203.75 145.43 226.21 128.29 226.21 126.83 203.75"/><path class="cls-27" d="M413.15,369a1.57,1.57,0,0,1-1.56-1.47l-2.77-43.23a1.58,1.58,0,0,1,1.47-1.67,1.55,1.55,0,0,1,1.66,1.47l2.77,43.23a1.56,1.56,0,0,1-1.46,1.66Z" transform="translate(-284.45 -126.02)"/><rect class="cls-17" x="89.48" y="209.7" width="25.96" height="43.91" rx="1.82" ry="1.82"/><path class="cls-28" d="M96.37,202h12.2a1.82,1.82,0,0,1,1.82,1.82v5.88a0,0,0,0,1,0,0H94.55a0,0,0,0,1,0,0v-5.88A1.82,1.82,0,0,1,96.37,202Z"/><path class="cls-17" d="M386.92,305.59h0a.71.71,0,0,0-.71.67L385.05,328h3.73l-1.16-21.76A.7.7,0,0,0,386.92,305.59Z" transform="translate(-284.45 -126.02)"/><rect class="cls-29" x="91.17" y="211.78" width="3.14" height="38.91"/><rect class="cls-28" x="99.74" y="224.75" width="15.71" height="5.11"/><rect class="cls-28" x="99.74" y="235.11" width="15.71" height="1.35"/><rect class="cls-28" x="99.74" y="238.29" width="15.71" height="1.35"/><path class="cls-2" d="M376.7,400.29H362.59a3.88,3.88,0,0,1-3.86-3.87h0a3.88,3.88,0,0,1,3.86-3.87H376.7a3.88,3.88,0,0,1,3.87,3.87h0A3.88,3.88,0,0,1,376.7,400.29Z" transform="translate(-284.45 -126.02)"/></g></g></svg>